<?xml version="1.0" encoding="UTF-8" standalone="no"?>
<!-- Created with Inkscape (http://www.inkscape.org/) -->

<svg
   xmlns:dc="http://purl.org/dc/elements/1.1/"
   xmlns:cc="http://creativecommons.org/ns#"
   xmlns:rdf="http://www.w3.org/1999/02/22-rdf-syntax-ns#"
   xmlns:svg="http://www.w3.org/2000/svg"
   xmlns="http://www.w3.org/2000/svg"
   xmlns:sodipodi="http://sodipodi.sourceforge.net/DTD/sodipodi-0.dtd"
   xmlns:inkscape="http://www.inkscape.org/namespaces/inkscape"
   version="1.1"
   id="svg3713"
   width="1436"
   height="1190.6667"
   viewBox="0 0 1436 1190.6667"
   sodipodi:docname="daemon.svg"
   inkscape:version="0.92.4 (5da689c313, 2019-01-14)">
  <metadata
     id="metadata3719">
    <rdf:RDF>
      <cc:Work
         rdf:about="">
        <dc:format>image/svg+xml</dc:format>
        <dc:type
           rdf:resource="http://purl.org/dc/dcmitype/StillImage" />
      </cc:Work>
    </rdf:RDF>
  </metadata>
  <defs
     id="defs3717" />
  <sodipodi:namedview
     pagecolor="#ffffff"
     bordercolor="#666666"
     borderopacity="1"
     objecttolerance="10"
     gridtolerance="10"
     guidetolerance="10"
     inkscape:pageopacity="0"
     inkscape:pageshadow="2"
     inkscape:window-width="3840"
     inkscape:window-height="2004"
     id="namedview3715"
     showgrid="false"
     inkscape:zoom="0.70710678"
     inkscape:cx="277.28903"
     inkscape:cy="446.86712"
     inkscape:window-x="-16"
     inkscape:window-y="-16"
     inkscape:window-maximized="1"
     inkscape:current-layer="svg3713" />
  <path
     style="fill:#000000;stroke-width:1.33333337"
     d="M 543.07911,901.02253 C 526.66155,887.91865 493.65131,854.14021 463.46501,819.5557 413.91891,762.79061 381.57667,730.07297 340.67193,695.33727 307.27528,666.97733 285.17627,651.05723 236.04868,619.96684 l -25.95132,-16.42329 -18.04868,-0.98136 C 153.10543,600.44472 113.85737,585.84074 93.911865,566.046 75.285183,547.56012 71.835197,528.21191 86.740429,525.82713 c 3.746143,-0.59937 5.563943,-0.0849 8.666667,2.45258 2.159431,1.76606 11.126234,6.11918 19.926234,9.67359 16.70259,6.74634 60.91158,27.06261 68.23639,31.35806 8.57647,5.02946 80.88004,7.51348 116.43028,4.00003 42.24199,-4.17481 94.82232,-15.98484 155.33333,-34.88929 55.6383,-17.38215 84.76979,-32.84243 116.93092,-62.05606 52.35951,-47.56088 110.99614,-140.01811 135.1059,-213.0327 9.28536,-28.12 15.40001,-66.63083 14.60753,-92 -0.34892,-11.17007 3.84821,-18 11.06135,-18 5.17345,0 6.95954,4.11985 6.98208,16.10498 0.14013,74.55606 25.45605,146.70224 71.32392,203.26137 13.36068,16.47491 39.7784,41.87295 56.65497,54.46822 46.95237,35.04132 101.85305,56.51413 159.162,62.2516 20.1966,2.02198 69.3238,0.93254 90.838,-2.0144 49.0411,-6.7175 104.108,-20.96142 134.8086,-34.87034 21.1375,-9.5763 25.6581,-10.33429 29.574,-4.95869 l 2.6049,3.57607 13.922,-4.9094 c 16.4323,-5.79463 18.9906,-5.98555 21.8443,-1.63026 3.5985,5.49211 1.4541,11.10743 -5.3569,14.02696 -9.8035,4.20224 -65.7264,22.16482 -89.3969,28.71451 -19.9929,5.53205 -26.3269,8.05428 -53.6956,21.38159 -58.1904,28.33599 -85.3993,47.05765 -121.2667,83.43988 -47.7365,48.42184 -83.52093,113.95066 -98.19986,179.82459 -7.08529,31.7963 -7.89296,39.76026 -8.23152,81.16624 -0.25524,31.21491 -0.68765,39.41664 -2.12995,40.39965 -0.99534,0.67837 -6.6097,1.00716 -12.47637,0.73064 -22.41765,-1.05663 -31.95881,-10.43947 -57.92439,-56.96319 -41.37278,-74.12955 -80.27173,-166.34529 -104.75332,-248.33334 -2.11401,-7.07974 -4.18154,-11.66667 -5.25868,-11.66667 -0.97626,0 -16.63796,2.7 -34.80378,6 -18.16582,3.3 -34.00218,6 -35.19192,6 -1.78555,0 -3.28246,6.34261 -8.57496,36.33333 -13.25546,75.11386 -19.7842,104.30095 -31.07035,138.90139 -13.79655,42.29673 -33.20216,80.15823 -55.28161,107.85775 -9.11524,11.43543 -31.82763,34.23531 -35.56112,35.69811 -5.61372,2.1995 -7.99132,1.28687 -18.50076,-7.1014 z m 33.58756,-12.04509 c 31.07777,-31.82126 52.27172,-67.94723 70.08446,-119.46187 12.1179,-35.04512 17.98795,-60.06515 30.54255,-130.18222 4.46436,-24.93333 8.44311,-46.96431 8.84165,-48.95772 0.56104,-2.80612 1.68114,-3.79072 4.96132,-4.36116 2.33018,-0.40523 19.23668,-3.42204 37.57002,-6.70404 18.33333,-3.282 34.34702,-5.96948 35.58598,-5.97217 1.67832,-0.004 3.14248,2.96954 5.74283,11.66176 20.43008,68.2918 48.05515,137.83003 80.54263,202.74312 33.49906,66.93435 49.74032,92.1252 64.25949,99.6691 5.13836,2.66978 22.42417,4.7896 24.70296,3.02938 1.06152,-0.81994 1.31221,-8.85665 0.8568,-27.46701 -2.01575,-82.37345 22.24153,-161.02776 70.77824,-229.49854 33.7857,-47.66159 77.1326,-85.33771 131.6873,-114.45943 37.6558,-20.10099 55.7904,-27.69393 88.099,-36.88701 33.9872,-9.67071 79.4709,-24.76983 84.4575,-28.03716 3.7784,-2.47574 4.3473,-7.10272 1.0297,-8.37579 -1.2547,-0.48148 -8.5103,1.32124 -16.3333,4.0582 -16.1589,5.65331 -18.2452,5.89232 -19.4096,2.22372 -1.9423,-6.11985 -4.8174,-5.72204 -24.8767,3.44213 -33.2923,15.20975 -92.9388,30.07571 -147.7895,36.83424 -21.6005,2.66155 -75.6359,2.22016 -95.3333,-0.77873 C 922.69768,477.7986 843.87872,428.68971 793.05753,354.66668 757.52912,302.91816 737.67995,240.48146 737.21155,178.99993 c -0.14218,-18.66121 -0.88346,-21.66659 -5.34407,-21.66659 -5.01025,0 -6.20349,4.91032 -6.96621,28.66667 -1.44364,44.96482 -12.9662,86.13933 -38.24576,136.66667 C 654.32413,387.28878 612.10499,446.38296 574,480.35069 541.87219,508.99023 508.0308,526.3902 450.66667,543.76408 386.31536,563.25415 340.304,573.21851 296,577.25914 c -20.11631,1.83465 -60.67625,1.79402 -87.15715,-0.0873 l -21.15713,-1.5031 -25.50953,-12.40755 c -14.03024,-6.82413 -35.10952,-16.39333 -46.84286,-21.26488 -11.73333,-4.87153 -21.813145,-9.7136 -22.399583,-10.76014 -1.252072,-2.23438 -5.376408,-2.47328 -9.021402,-0.52254 -6.62139,3.54366 -0.269533,20.02849 12.509424,32.46543 9.958431,9.69189 21.230391,16.53114 37.578231,22.80056 22.48811,8.62421 34.34025,11.31112 56.58493,12.82793 24.04092,1.63931 17.76339,-1.16104 64.31939,28.69231 80.53007,51.63875 131.44013,97.56848 218.44283,197.07348 38.27338,43.77328 76.62405,80.64251 83.98618,80.74191 2.5342,0.0343 7.16915,-3.88257 19.33334,-16.33777 z M 544.3418,884.20356 C 526.00871,868.01898 505.76388,846.83 472.18332,808.67985 c -40.1122,-45.57062 -65.10608,-72.34436 -81.6518,-87.4664 -34.5482,-31.57551 -86.67801,-71.50497 -138.86485,-106.36523 -8.4975,-5.67623 -14.33334,-10.46426 -14.33334,-11.7598 0,-2.00074 4.02582,-2.10992 47.66667,-1.29278 26.21667,0.49088 70.76667,1.48196 99,2.20239 55.16733,1.40769 107.42816,0.21476 144,-3.28704 11.36667,-1.08836 39.86667,-3.21593 63.33333,-4.72793 39.01987,-2.51411 54.67978,-3.80591 74.79055,-6.16954 5.31592,-0.62477 7.20945,-0.41146 7.20945,0.81218 0,9.08433 -10.85372,77.45288 -16.83433,106.04099 -17.63848,84.3142 -44.96623,142.61572 -87.65276,187 -5.11329,5.31667 -10.39169,9.66667 -11.72977,9.66667 -1.33808,0 -7.08668,-4.10842 -12.77467,-9.1298 z m 24.45412,-6.13338 c 48.63505,-53.14084 74.21849,-116.53923 93.11027,-230.73683 4.0506,-24.48515 7.75228,-52.78599 7.00236,-53.53589 -0.30467,-0.30468 -9.18374,0.33882 -19.73126,1.43 -10.5475,1.09116 -34.47729,2.9296 -53.17729,4.0854 -18.7,1.15578 -48.1,3.41144 -65.33333,5.01256 -27.32263,2.53849 -40.12276,2.91732 -100,2.95952 C 392.9,607.3116 335.6,606.81204 303.33333,606.17488 l -58.66666,-1.15846 22.65234,15.6946 c 60.11252,41.64873 102.58196,75.05609 133.84966,105.289 17.60544,17.02279 43.36628,44.97099 76.19678,82.66667 12.77374,14.66667 30.74211,34.39779 39.92975,43.84693 16.78161,17.25926 38.08972,36.81974 40.1094,36.81974 0.59572,0 5.72181,-5.06843 11.39132,-11.26318 z m 349.7136,0.59612 C 910.28635,874.32066 902.50859,864.02648 888.70809,839.22288 861.17287,789.73385 837.27756,739.95765 817.75524,691.42135 802.80808,654.2598 776,577.73994 776,572.23695 c 0,-2.27027 5.4658,-3.34856 75.33333,-14.86173 C 970.06011,537.81072 1108.209,512.86005 1137,505.78181 c 2.1347,-0.52481 3,-0.14348 3,1.32206 0,1.20924 -5.0922,4.92156 -12.3333,8.99128 -71.9885,40.45947 -128.49818,102.39948 -163.06834,178.73848 -13.87196,30.63255 -24.64757,66.21322 -29.88115,98.66646 -3.60018,22.32464 -5.61342,54.61117 -4.54154,72.83327 l 0.88234,15 -3.86233,-0.0589 c -2.12429,-0.0324 -6.03307,-1.20606 -8.68616,-2.60812 z m 8.15715,-25.67445 c 0,-88.85394 29.97544,-173.76684 86.48553,-244.99183 27.2275,-34.31736 69.6329,-71.08011 104.5752,-90.65975 4.25,-2.3815 7.5485,-4.50882 7.3299,-4.72739 -0.2186,-0.21857 -13.6346,2.23392 -29.8134,5.44999 -52.8371,10.5031 -207.55066,37.38021 -303.27865,52.68609 -4.78577,0.7652 -9.46964,1.86606 -10.40858,2.44636 -2.043,1.26264 2.37782,15.60622 19.15157,62.13803 27.41223,76.04391 52.7576,132.31779 89.01824,197.64558 16.95743,30.55079 22.41245,38.09717 30.94019,42.80208 5.89377,3.25172 6,2.84827 6,-22.78916 z m -616,-264.99183 6,-0.93282 -6,-0.36892 c -5.51772,-0.33926 -5.24979,-0.46308 3.33333,-1.54024 68.76899,-8.63041 172.61279,-38.30142 215.33333,-61.52664 44.5316,-24.2098 82.86674,-62.22679 121.97704,-120.96472 23.88958,-35.87866 49.33815,-82.6437 60.04111,-110.33334 3.99177,-10.32712 7.18423,-12.59459 7.50901,-5.33333 0.31092,6.95133 -0.19322,12.22465 -3.6648,38.33333 -5.87213,44.16255 -37.16822,245.08365 -38.36073,246.27617 -3.39903,3.39901 -92.56076,10.95969 -161.50163,13.69489 -75.99076,3.01491 -218.82032,4.89608 -204.66666,2.69562 z m 120,-3.99763 c 86.5615,-1.86163 140.91725,-4.38715 188.66666,-8.76597 21.27215,-1.95075 54.3203,-5.74151 54.78363,-6.28392 0.13428,-0.1572 2.74908,-16.48582 5.81065,-36.28582 3.06159,-19.8 9.9947,-64.2 15.40692,-98.66667 8.70674,-55.44708 17.83264,-118.00517 19.7423,-135.33333 l 0.66122,-6.00001 -2.07022,4.66667 c -29.8667,67.32476 -72.40362,133.65547 -112.22828,175.00521 -46.34746,48.1223 -85.10356,68.2092 -183.54275,95.12837 -14.72343,4.02626 -38.12343,9.66158 -52,12.52291 l -25.23013,5.20243 14.66666,0.0575 c 8.06667,0.0316 41.96667,-0.52969 75.33334,-1.24729 z m -298,-15.51671 c -16.44485,-3.45974 -34.000003,-13.40984 -34.000003,-19.27085 0,-1.40148 0.563653,-2.54815 1.252562,-2.54815 1.329431,0 34.639481,13.96926 43.080771,18.06682 5.53307,2.68585 6.66889,5.99365 2,5.82448 -1.65,-0.0597 -7.2,-0.99231 -12.33333,-2.0723 z m -2.11111,-4.98421 c -0.79629,-0.71459 -22.88063,-10.16812 -23.75367,-10.16812 -1.89265,0 6.4867,4.82535 13.11389,7.55177 6.47536,2.66398 12.28474,4.09252 10.63978,2.61635 z m 558.23175,6.02707 c -0.38688,-0.62598 4.11152,-31.97598 9.99645,-69.66667 5.88492,-37.69068 13.23115,-85.02853 16.32495,-105.19519 7.03786,-45.8758 8.09044,-46.96034 12.37833,-12.7543 6.15276,49.08282 15.22235,97.82734 27.13092,145.81523 3.69345,14.88351 6.71537,28.18583 6.71537,29.56073 0,3.03574 1.21582,2.76501 -39.07665,8.70146 -36.66869,5.40256 -32.58436,4.97072 -33.46937,3.53874 z m 35.40169,-7.52852 c 17.07961,-2.56667 31.75568,-4.66667 32.61349,-4.66667 1.0487,0 0.29888,-4.69565 -2.2888,-14.33333 -11.52426,-42.92151 -26.92476,-124.47659 -31.96574,-169.2782 -0.0821,-0.7302 -30.03984,188.3897 -30.51076,192.61153 -0.0576,0.51669 -0.68366,0.60107 32.15181,-4.33333 z m 43.99833,-20.78076 c -18.94284,-71.77221 -31.89721,-150.55285 -37.5742,-228.50334 -1.23369,-16.93991 -0.36777,-39.75703 2.13132,-56.16035 1.07907,-7.08272 3.95699,-4.72483 6.50956,5.33333 5.71763,22.52975 19.57059,55.238 33.4737,79.03486 38.17058,65.33354 99.18581,116.42448 170.60562,142.85616 35.78675,13.24427 65.09817,18.85337 109.66667,20.98607 13.4849,0.64526 19,1.37789 19,2.52394 0,2.41563 -73.88687,15.37795 -220.32928,38.65341 -39.41444,6.2645 -73.36537,11.39001 -75.44651,11.39001 -3.71296,0 -3.8636,-0.30205 -8.03688,-16.11409 z M 870,539.29515 c 44,-6.97907 103.4,-16.72555 132,-21.65884 l 52,-8.96963 -14.6667,-0.96115 c -84.6081,-5.54461 -158.91354,-39.0065 -218.13745,-98.23364 -27.35373,-27.35523 -45.05158,-51.88956 -62.25913,-86.30912 -7.86965,-15.74135 -19.13975,-43.87703 -20.89909,-52.1744 -1.63366,-7.70464 -3.08478,-3.35839 -4.05314,12.13961 -2.177,34.8419 9.36652,130.32768 24.09518,199.31054 4.40997,20.65444 16.27536,69.20894 17.35852,71.03298 0.26286,0.44264 3.6468,0.28912 7.51986,-0.34116 C 786.83112,552.50007 826,546.27423 870,539.29515 Z m 198.9722,-32.1007 c -0.443,-0.44305 -1.593,-0.49041 -2.5555,-0.1052 -1.0637,0.42563 -0.7477,0.74158 0.8055,0.80555 1.4056,0.0579 2.1931,-0.25724 1.75,-0.70029 z"
     id="path3748"
     inkscape:connector-curvature="0" />
  <path
     style="fill:#000000;fill-opacity:1;stroke:#e4e2df;stroke-width:1.25669289;stroke-linecap:round;stroke-linejoin:round;stroke-miterlimit:4;stroke-dasharray:none;stroke-opacity:1"
     d="m 731.42521,156.90328 c -4.45925,0.18286 -5.1202,5.73871 -5.66265,9.12665 -1.85275,16.3278 -1.4788,32.81733 -3.9676,49.0878 -6.32745,48.98828 -27.69485,94.39194 -51.47835,137.14847 -24.26745,42.66206 -52.08835,83.70926 -86.8702,118.51287 -23.07354,23.14326 -50.95208,41.35129 -81.12469,53.97345 -31.01224,13.06034 -63.43117,22.35539 -95.86106,31.13216 -40.37966,10.40534 -81.45017,19.48344 -123.14731,21.55394 -31.92731,1.07971 -63.89706,0.36841 -95.71722,-2.3537 -27.17107,-13.42476 -54.66748,-26.23073 -82.52246,-38.1416 -4.91965,-2.08762 -9.684538,-4.57235 -14.160161,-7.47754 -4.791825,-2.11469 -10.98679,2.1576 -10.048828,7.50879 1.269671,10.47212 8.18522,19.2823 15.336914,26.61035 16.071955,15.45743 37.511335,23.55836 58.473555,29.94258 15.8397,4.77962 32.47102,5.46401 48.81941,6.78984 11.58686,1.03722 20.89877,8.86376 30.62484,14.45033 39.84905,25.00589 78.94084,51.47626 114.49108,82.42536 48.68084,41.93675 91.25834,90.24565 133.83604,138.2086 19.80484,21.58075 39.5868,43.36825 61.97871,62.3278 4.12398,3.09255 8.2199,6.947 13.28613,8.23635 5.1893,-2.22855 8.8919,-6.92825 13.07456,-10.5895 25.37134,-24.3388 45.87779,-53.5974 60.37564,-85.61265 15.85795,-34.97925 27.46925,-71.8509 34.98855,-109.50385 7.7785,-36.93035 13.5847,-74.28254 21.19795,-111.21002 1.0262,-2.97467 5.21055,-2.24124 7.63215,-3.12666 22.7406,-4.1064 45.5617,-8.42233 68.3503,-11.82548 3.04725,-0.44951 3.206,3.64631 4.2524,5.58601 7.3465,22.27323 14.01085,44.7777 22.0943,66.80619 23.98645,66.97496 53.76505,131.83576 88.08495,194.13126 8.32135,14.21195 16.6092,28.77105 28.11815,40.69245 5.36855,5.67435 12.87435,8.7043 20.55735,9.46905 4.33785,0.33885 9.08935,1.6031 13.2688,-0.009 1.5258,-3.3425 0.6122,-7.4015 1.0227,-11.00175 0.5662,-26.56685 -0.368,-53.29605 3.8472,-79.58 10.9088,-77.4597 47.12395,-150.91423 100.97154,-207.65484 32.1426,-33.84582 71.1683,-60.47833 112.9159,-81.04191 19.5991,-10.22416 39.8212,-19.15142 61.0678,-25.38739 30.8248,-9.34993 61.886,-18.14183 91.9679,-29.72862 3.7042,-1.23802 8.4702,-4.42192 7.2402,-8.94336 -1.5455,-3.59976 -6.1943,-1.77376 -8.9863,-1.11426 -8.858,2.25004 -17.2531,6.23862 -26.3086,7.5166 -2.8327,-0.15796 -2.2554,-4.27804 -4.4785,-5.50488 -3.8122,-2.21275 -8.2619,0.58383 -11.9749,1.7318 -18.1757,8.06533 -36.7755,15.29759 -55.9066,20.71354 -31.3458,8.99396 -63.4152,15.56223 -95.7008,19.98714 -27.4567,3.34824 -55.2919,3.02097 -82.9074,1.8706 -30.0092,-1.51817 -59.48579,-9.02665 -87.60149,-19.47855 -64.7288,-24.42557 -121.3713,-70.30475 -158.11105,-129.02058 -27.57125,-43.78563 -44.4993,-94.42527 -48.12955,-146.05512 -0.9988,-12.33632 -0.2984,-24.81356 -2.0374,-37.08965 -0.35855,-2.68924 -2.3546,-4.52106 -5.1719,-4.08887 z m 3.48535,96.34961 c 2.812,3.05046 3.19195,7.64924 4.57815,11.44578 9.5213,32.5461 24.0771,63.61622 42.5911,92.00978 40.60165,61.54201 102.58155,108.276 172.4348,131.57329 31.5712,10.83763 64.91159,15.43958 98.14099,16.99519 6.0866,0.57694 12.5055,0.4603 18.3273,1.86854 -10.0574,3.46251 -20.7472,4.70531 -31.1302,6.89549 -64.20089,11.58382 -128.66974,21.78621 -193.09434,32.1182 -23.64245,3.61018 -47.25155,7.67214 -70.96595,10.61814 -3.16645,0.5739 -3.18325,-3.72352 -4.2168,-5.68261 -7.70645,-26.66077 -13.6974,-53.85033 -19.21855,-81.05912 -10.15205,-51.52161 -17.20575,-103.73457 -21.04545,-156.0993 -1.0051,-19.47969 -0.94745,-39.22316 2.32455,-58.44022 0.27255,-0.68495 0.35065,-2.14178 1.2744,-2.24316 z m -17.7734,30.27539 c 1.8147,1.08976 0.8987,4.09172 1.2334,5.83496 -1.07115,21.25914 -4.7848,42.32362 -7.6451,63.42138 -10.60305,70.9706 -21.47605,141.927 -33.19605,212.72253 -0.64205,1.9029 -0.278,4.78242 -1.621,6.06969 -16.21585,3.44551 -32.81935,4.32753 -49.27235,6.01026 -60.16434,5.30719 -120.52719,7.99937 -180.91258,9.21772 -44.23673,1.0732 -88.49214,1.48816 -132.74063,1.3094 1.67631,-1.74759 -3.66445,-1.8263 -1.14804,-2.06921 51.93061,-7.05346 102.99657,-19.77071 152.79696,-35.97179 28.81543,-9.50784 57.81355,-19.84753 83.08936,-37.02443 43.87813,-28.78142 77.70513,-70.15172 106.25783,-113.62206 20.8578,-32.16218 39.8779,-65.63783 55.28175,-100.771 2.45185,-4.97953 3.7642,-10.7771 7.4106,-15.00733 0.14295,-0.0761 0.3026,-0.12569 0.46585,-0.12012 z m 5.65525,75.25879 c 2.27895,5.47312 2.2595,11.62996 3.3673,17.42606 5.79355,44.8205 13.25125,89.47017 23.6703,133.46951 3.5051,16.07065 8.0982,31.92503 11.0005,48.10736 -0.2925,2.34394 -3.61165,1.6657 -5.2498,2.40172 -21.5887,3.6573 -43.3528,6.86541 -65.0084,9.66707 -2.3157,0.37513 -0.566,-3.39515 -0.80235,-4.91059 6.29925,-46.22121 13.8991,-92.30148 20.93385,-138.42986 3.54425,-21.6038 6.35195,-43.34918 10.6804,-64.78791 0.31675,-0.88635 0.57475,-2.74798 1.4082,-2.94336 z m 416.34869,147.39746 c 0.6179,2.15246 -2.553,3.24214 -3.7373,4.50781 -14.2453,8.90827 -28.9751,17.09316 -42.5952,26.98146 -68.6874,48.597 -120.02049,120.52858 -145.30299,200.64848 -10.02275,31.1644 -15.98225,63.61675 -17.40755,96.33125 -0.8148,15.4009 -0.68255,30.8437 0.29005,46.23415 -10.9076,0.57115 -19.4902,-7.75335 -25.32285,-16.04485 -14.2345,-20.83975 -25.64865,-43.4359 -37.28845,-65.78145 -23.34595,-45.8012 -44.653,-92.6707 -62.2359,-140.9642 -9.918,-27.10975 -19.71315,-54.30446 -28.10415,-81.94591 -0.38945,-1.84396 -1.8814,-5.01877 1.2707,-5.20893 15.9693,-4.0082 32.3608,-6.05645 48.54585,-9.00834 92.8176,-15.58715 185.67099,-31.05636 278.07139,-48.97994 11.3093,-2.06024 22.472,-4.93757 33.8164,-6.76953 z M 100.06195,547.48824 c 9.43912,2.81274 18.37052,7.21432 27.4834,10.94434 6.18515,2.94935 12.85486,5.13851 18.57421,8.93066 0.75737,0.58518 2.12964,2.74199 0.11133,2.40625 -7.73444,0.11893 -15.20001,-2.19942 -22.53906,-4.37988 -8.15665,-3.05043 -16.70054,-6.4017 -22.80371,-12.85547 -1.098606,-1.2129 -2.122952,-3.61822 -1.047853,-5.04199 l 0.102539,-0.006 z m 570.46581,42.5752 c 3.03805,-0.68557 2.2815,2.1489 2.0056,4.20817 -3.87655,31.66859 -9.1759,63.22197 -15.04505,94.58572 -7.7993,38.88885 -18.1618,77.53875 -34.8581,113.6234 -7.99655,17.0904 -16.9152,33.63025 -27.93565,48.94825 -9.7135,13.7992 -20.57478,26.888 -33.02519,38.3112 -1.52048,1.0009 -3.02176,2.8409 -4.87207,2.9844 -9.36684,-5.1709 -16.62994,-13.28865 -24.42285,-20.4473 -35.25353,-34.14555 -66.33684,-72.23225 -99.60536,-108.2688 -21.96682,-24.29175 -45.1921,-47.527 -70.75601,-68.0545 -36.39183,-30.03425 -74.74753,-57.57689 -113.71115,-84.15305 -3.39902,-2.76361 -7.76434,-4.8605 -10.11694,-8.62714 0.50783,-1.67373 3.33759,-0.58172 4.60254,-1.03809 38.5331,-0.25442 77.05845,1.07893 115.58134,1.82353 42.19859,1.01 84.43579,1.43376 126.63197,0.14407 33.93486,-1.58124 67.70997,-5.21269 101.61692,-7.24292 27.8116,-1.78702 55.61435,-3.81685 83.32405,-6.79109 0.1954,0.009 0.39065,-0.006 0.58595,-0.006 z"
     id="path3785"
     inkscape:connector-curvature="0" />
</svg>
